PathFileType	4	(X/Y/Z)	./resultDataOpenSim/trcMotMarkerGrf/sub10/qtm-02-01.trc
DataRate	CameraRate	NumFrames	NumMarkers	Units	OrigDataRate	OrigDataStartFrame	OrigNumFrames
250.000000	250.000000	10	24	m	250.000000	116	461
Frame#	Time	L.Toe.Tip			R.Toe.Tip			L.Ankle.Lat			R.Ankle.Lat			L.Ankle.Med			R.Ankle.Med			L.Heel			R.Heel			L.Knee.Lat			R.Knee.Lat			L.Knee.Med			R.Knee.Med			L.Thigh.Upper			R.Thigh.Upper			L.ASIS			R.ASIS			V.Sacral			L.Acromium			R.Acromium			C7			L.Elbow			R.Elbow			L.Wrist.Lat			R.Wrist.Lat
		X1	Y1	Z1	X2	Y2	Z2	X3	Y3	Z3	X4	Y4	Z4	X5	Y5	Z5	X6	Y6	Z6	X7	Y7	Z7	X8	Y8	Z8	X9	Y9	Z9	X10	Y10	Z10	X11	Y11	Z11	X12	Y12	Z12	X13	Y13	Z13	X14	Y14	Z14	X15	Y15	Z15	X16	Y16	Z16	X17	Y17	Z17	X18	Y18	Z18	X19	Y19	Z19	X20	Y20	Z20	X21	Y21	Z21	X22	Y22	Z22	X23	Y23	Z23	X24	Y24	Z24

116	0.46	-0.65281961	0.05559257	-0.14728823	-0.68302696	0.039089362	-0.0078282809	-0.76381099	0.12981181	-0.16276377	-0.82388628	0.054707113	0.028108136	-0.7411008	0.14107358	-0.081356236	-0.80501942	0.083245565	-0.055111579	-0.83418927	0.12315636	-0.11241864	-0.875526	0.030727177	-0.017935862	-0.57627087	0.46821346	-0.18187611	-0.74843902	0.45097723	0.0803689	-0.56011604	0.44294293	-0.062526049	-0.74277908	0.45562927	-0.052507851	-0.70007427	0.82515938	-0.24418084	-0.71339205	0.86747007	0.13444308	-0.64805208	0.94129482	-0.18299688	-0.64117063	0.9545331	0.059364442	-0.84120921	0.96827178	-0.058695639	-0.70385806	1.4263179	-0.21772926	-0.72501573	1.4154888	0.1086339	-0.8030514	1.4444039	-0.06116107	-0.76060667	1.0881555	-0.27860656	-0.78661658	1.0707303	0.16093525	-0.62171323	0.88735522	-0.25627968	-0.6430654	0.8788521	0.2184616
117	0.464	-0.63305725	0.055053526	-0.14642444	-0.68301405	0.039081753	-0.0077584607	-0.74673095	0.12566227	-0.16095275	-0.82452504	0.054799463	0.028131655	-0.72367258	0.13753942	-0.07969202	-0.80596729	0.083101954	-0.055350246	-0.81665105	0.11686098	-0.11025198	-0.87552163	0.030800788	-0.017907459	-0.56794028	0.46962385	-0.18119461	-0.74731079	0.45111343	0.080868186	-0.55095562	0.44457163	-0.061817702	-0.74117441	0.45533517	-0.052235826	-0.69346549	0.82593666	-0.24443571	-0.70948317	0.86705517	0.1345368	-0.64210273	0.94166032	-0.18222145	-0.63599123	0.95408977	0.060280121	-0.83570507	0.96850533	-0.05939929	-0.69844863	1.4262744	-0.21730415	-0.71933575	1.415613	0.10910729	-0.79741195	1.4443686	-0.060684253	-0.75674455	1.0886402	-0.2785793	-0.77882419	1.0702619	0.16158054	-0.62064503	0.88603405	-0.25737377	-0.63254915	0.87968018	0.2167241
118	0.468	-0.61328966	0.054588905	-0.14554163	-0.68303699	0.039073811	-0.0076862134	-0.72952916	0.12153752	-0.15920085	-0.82523609	0.054880465	0.028161745	-0.70608552	0.13409097	-0.078020906	-0.8066764	0.083017432	-0.05553979	-0.79826418	0.11078908	-0.10787931	-0.8755606	0.030955125	-0.018194068	-0.55976413	0.47090019	-0.18057002	-0.7448922	0.45100166	0.080681207	-0.5420753	0.44606579	-0.061220989	-0.73966022	0.45500058	-0.052035087	-0.68667772	0.82665132	-0.24447542	-0.705611	0.86661526	0.13464433	-0.63606398	0.94198425	-0.18144382	-0.63086058	0.95359111	0.061192509	-0.83056686	0.96836078	-0.060408153	-0.69301688	1.4261574	-0.21688554	-0.71366892	1.4156635	0.10958634	-0.79174733	1.4442658	-0.060170639	-0.75291839	1.0890568	-0.27856401	-0.77109623	1.0697225	0.16226784	-0.61957023	0.88471399	-0.25845145	-0.62203874	0.88049367	0.2149593
119	0.472	-0.5934919	0.054217349	-0.14463574	-0.68309517	0.039072448	-0.0076061858	-0.71217523	0.11743576	-0.15750543	-0.8257542	0.054947487	0.028155719	-0.68821335	0.13078351	-0.076286315	-0.80697022	0.08304284	-0.055625893	-0.77930898	0.10485154	-0.10548193	-0.87561435	0.031174061	-0.018682513	-0.5517166	0.47202059	-0.18000315	-0.74221387	0.45078396	0.080147071	-0.53348197	0.44740405	-0.060738288	-0.73817729	0.45465823	-0.051882303	-0.67955026	0.82732843	-0.24423314	-0.70175473	0.8661664	0.13476023	-0.62994901	0.94223902	-0.18068053	-0.62591007	0.95300697	0.062063392	-0.82568999	0.96791701	-0.061669028	-0.68756588	1.4259574	-0.21647187	-0.70799302	1.4156339	0.11006273	-0.78605526	1.4440898	-0.05962373	-0.74914786	1.0893992	-0.27851477	-0.76339946	1.0690901	0.16296962	-0.61845998	0.88340144	-0.25950478	-0.61152478	0.88128887	0.21316071
120	0.476	-0.57364994	0.053971803	-0.14368705	-0.68321026	0.039063335	-0.0075160157	-0.69450766	0.11341278	-0.1558007	-0.82600824	0.055005797	0.028103004	-0.66993994	0.12771481	-0.074420943	-0.80697009	0.083150008	-0.055642832	-0.76031708	0.098880139	-0.10337296	-0.87566457	0.031416208	-0.019238594	-0.54380722	0.47297051	-0.17948369	-0.74058246	0.45066194	0.07983277	-0.52509998	0.44857953	-0.060327593	-0.73668544	0.45431752	-0.05175326	-0.6721995	0.82794931	-0.24384416	-0.69790875	0.86571441	0.13487671	-0.62369856	0.94240137	-0.17993161	-0.6211326	0.95234271	0.06287948	-0.82086058	0.96735211	-0.063004473	-0.68210556	1.4256698	-0.21605907	-0.70229393	1.41552	0.1105356	-0.78034885	1.4438412	-0.059085149	-0.74548149	1.0896539	-0.27843584	-0.7557092	1.0683417	0.16366193	-0.61728061	0.88209469	-0.26053594	-0.60099394	0.88205871	0.21131744
121	0.48	-0.55376639	0.053876687	-0.14266463	-0.68340658	0.039030182	-0.0074211722	-0.67641704	0.10954129	-0.15403901	-0.82610426	0.05506438	0.028019868	-0.65135328	0.12495201	-0.072426867	-0.80684616	0.083298405	-0.055646532	-0.74159216	0.092847959	-0.10167768	-0.87569787	0.031640202	-0.019754711	-0.53605747	0.4737518	-0.17900652	-0.7404124	0.45071173	0.080041719	-0.51684195	0.4495986	-0.059944063	-0.73517575	0.45397351	-0.051637313	-0.66493991	0.82846123	-0.24355394	-0.69407611	0.86525557	0.13499074	-0.61729686	0.94246531	-0.17919605	-0.61644257	0.95161463	0.063648757	-0.81592423	0.96681165	-0.064249581	-0.67663699	1.4253	-0.21564344	-0.69657117	1.4153177	0.11100926	-0.77467024	1.4435284	-0.058672215	-0.74193229	1.0898172	-0.2783453	-0.7480201	1.0674763	0.16434097	-0.61599046	0.88078726	-0.261543	-0.5904317	0.88279775	0.20942736
122	0.484	-0.53385961	0.053926924	-0.14154365	-0.68365243	0.03898552	-0.0073289485	-0.65804433	0.10581793	-0.15226294	-0.82615433	0.055126183	0.027922482	-0.63280383	0.12238684	-0.070443326	-0.80670138	0.083454249	-0.055667131	-0.72304234	0.086892911	-0.10021595	-0.87571802	0.031830943	-0.020207306	-0.52846771	0.47437758	-0.17857484	-0.74100564	0.45082599	0.080580568	-0.50862405	0.45047138	-0.059534607	-0.7336418	0.45362831	-0.051532544	-0.65789183	0.82883734	-0.24344818	-0.69026497	0.86477482	0.1351075	-0.61087564	0.94242602	-0.17849734	-0.61176195	0.95083376	0.064387511	-0.81084817	0.96632135	-0.065364178	-0.67114892	1.4248531	-0.21522804	-0.69082201	1.4150239	0.1114835	-0.76908789	1.4431606	-0.058573188	-0.73838522	1.0899008	-0.27825353	-0.74033066	1.0665264	0.16502602	-0.6145557	0.87947549	-0.26251481	-0.57985311	0.88350614	0.20749912
123	0.488	-0.51394451	0.054104064	-0.14030669	-0.68385786	0.038972036	-0.0072382144	-0.63959467	0.10218776	-0.15054662	-0.82620752	0.055187075	0.027814854	-0.61462519	0.11976873	-0.068669621	-0.80656086	0.083577231	-0.055687806	-0.70421265	0.081141896	-0.098589776	-0.87573888	0.031990885	-0.020621486	-0.52101135	0.4748459	-0.17818174	-0.74151436	0.45081702	0.080940328	-0.50034997	0.45120823	-0.059024506	-0.73207485	0.45328814	-0.051441718	-0.65086422	0.82909517	-0.24338298	-0.6864689	0.86425154	0.13522771	-0.60458951	0.94227457	-0.17786563	-0.6070631	0.95000581	0.065108941	-0.80566088	0.96583155	-0.066396457	-0.6656311	1.4243258	-0.21481791	-0.68504141	1.4146375	0.11195771	-0.76363005	1.4427378	-0.058870252	-0.73461712	1.0899193	-0.27818729	-0.73263425	1.0655329	0.16574257	-0.6129836	0.878157	-0.26344704	-0.56932518	0.8841905	0.20554774
124	0.492	-0.49402829	0.054395608	-0.13894923	-0.68395979	0.039015725	-0.0071444552	-0.62110674	0.098633717	-0.14892515	-0.82627072	0.055243651	0.027697705	-0.59681175	0.11700966	-0.067150485	-0.80640005	0.083638186	-0.055672108	-0.68462756	0.075594833	-0.096468596	-0.87577031	0.032137032	-0.021054734	-0.51365984	0.47512131	-0.17780606	-0.74158291	0.45055823	0.080723849	-0.49195101	0.45182308	-0.058364542	-0.73046437	0.45295421	-0.051368091	-0.64378129	0.82923936	-0.24325218	-0.68263902	0.86366982	0.13531579	-0.59843784	0.94201212	-0.17729659	-0.60236226	0.9491311	0.065814625	-0.80040004	0.96529886	-0.0673907	-0.66008284	1.4237088	-0.21441297	-0.67923622	1.4141593	0.11243923	-0.75820931	1.4422471	-0.059309503	-0.73051891	1.0898829	-0.27818183	-0.72492575	1.0645104	0.1664985	-0.61132067	0.87682844	-0.26435117	-0.55890902	0.88485817	0.20358457
125	0.496	-0.47413301	0.05478876	-0.13749301	-0.68397703	0.039086404	-0.0070540349	-0.60253458	0.095183162	-0.14739603	-0.82633257	0.05529725	0.027581247	-0.57908385	0.11429389	-0.065728435	-0.80621845	0.083646875	-0.055628234	-0.66434361	0.070233728	-0.093981268	-0.8758124	0.03228564	-0.021535946	-0.50638231	0.47514639	-0.17742819	-0.74115342	0.45008193	0.08005059	-0.48350486	0.45231655	-0.057629905	-0.72880372	0.45262141	-0.051313868	-0.63687464	0.82923901	-0.24316306	-0.67866297	0.86301097	0.13526308	-0.59230343	0.94165019	-0.17676066	-0.59770851	0.94819914	0.066489807	-0.79509274	0.9647058	-0.06836475	-0.65450747	1.4229966	-0.21401382	-0.67341941	1.4135908	0.11293543	-0.75269731	1.4416756	-0.059460825	-0.72630212	1.0897937	-0.27822177	-0.71720473	1.0634498	0.16728119	-0.6096228	0.87548663	-0.26524757	-0.54858103	0.88550778	0.2016055
